#!OML:ASF I:\Actors\actors\Patient Classification 2\Patient 1\Session 1\actor1.ASF
:FULLY-SPECIFIED
:DEGREES
797
root -0.891265 18.4979 6.22057 -6.66762 -1.04635 -3.36136
lowerback 4.82591 0.396765 1.47468
upperback -1.38693 0.661556 0.937745
thorax -4.1336 0.303427 0.0855454
lowerneck -12.6291 -1.48695 -0.630993
upperneck 26.9858 -2.39373 1.4574
head 10.7852 -0.987632 0.322814
rclavicle 8.32411e-015 1.19271e-015
rhumerus -51.051 -8.00882 -82.6813
rradius 40.2393
rwrist 21.0411
rhand -7.23724 -29.9317
rfingers 7.12502
rthumb 18.6426 300.942
lclavicle 8.32411e-015 1.19271e-015
lhumerus -45.4947 5.63083 87.422
lradius 36.2114
lwrist -7.93475
lhand -10.0617 -20.138
lfingers 7.12502
lthumb 15.9242 9.22733
rfemur 17.839 4.61694 19.1622
rtibia 1.59028e-015
rfoot -21.6815 -12.9366
rtoes -3.52592
lfemur 5.13156 -7.7766 -11.3359
ltibia 22.0147
lfoot -23.1633 10.8956
ltoes -56.1673
798
root -0.897589 18.4999 6.20815 -6.63303 -1.11641 -3.44259
lowerback 4.85872 0.374959 1.55996
upperback -1.38125 0.639914 0.970581
thorax -4.14602 0.290881 0.0732007
lowerneck -12.5042 -1.42646 -0.500622
upperneck 26.7244 -2.28546 1.28568
head 10.6576 -0.948163 0.254011
rclavicle 4.39811e-015 7.15625e-015
rhumerus -51.3637 -7.51739 -83.0509
rradius 40.5116
rwrist 20.7276
rhand -6.31384 -30.1281
rfingers 7.12502
rthumb 19.5306 300.833
lclavicle 4.39811e-015 7.15625e-015
lhumerus -45.9002 5.43549 87.35
lradius 36.3352
lwrist -7.77929
lhand -10.0142 -20.3887
lfingers 7.12502
lthumb 15.9699 8.97298
rfemur 17.749 4.67069 19.2767
rtibia -2.70347e-014
rfoot -21.5649 -13.0011
rtoes -4.23679
lfemur 5.05728 -7.78335 -11.2133
ltibia 22.0342
lfoot -23.19 10.8808
ltoes -56.0365
799
root -0.901824 18.5011 6.1946 -6.57661 -1.12988 -3.49946
lowerback 4.88529 0.333184 1.63307
upperback -1.38374 0.591006 1.00595
thorax -4.16386 0.265076 0.0726321
lowerneck -12.3951 -1.3762 -0.422241
upperneck 26.4807 -2.18695 1.13816
head 10.5418 -0.915062 0.201576
rclavicle -9.28076e-015 -1.20265e-014
rhumerus -51.6591 -7.09462 -83.3232
rradius 40.8131
rwrist 20.4732
rhand -5.5768 -29.7544
rfingers 7.12502
rthumb 20.2391 301.28
lclavicle -9.28076e-015 -1.20265e-014
lhumerus -46.2922 5.37325 87.2806
lradius 36.5285
lwrist -7.70546
lhand -9.88386 -20.708
lfingers 7.12502
lthumb 16.0955 8.64356
rfemur 17.6415 4.67382 19.3459
rtibia 9.54166e-015
rfoot -21.5403 -12.9708
rtoes -4.24719
lfemur 4.94735 -7.78415 -11.1135
ltibia 22.0435
lfoot -23.1679 10.7658
ltoes -55.8644
800
root -0.905043 18.5018 6.18204 -6.54079 -1.19478 -3.49611
lowerback 4.91224 0.32011 1.65442
upperback -1.3537 0.576213 1.03496
thorax -4.14822 0.257772 0.0917466
lowerneck -12.4154 -1.33341 -0.473572
upperneck 26.3196 -2.11257 1.14565
head 10.4863 -0.886031 0.22248
rclavicle -5.09386e-016 4.07509e-015
rhumerus -51.8641 -6.73397 -83.5364
rradius 41.0973
rwrist 20.2221
rhand -5.27297 -29.2113
rfingers 7.12502
rthumb 20.5311 301.854
lclavicle -5.09386e-016 4.07509e-015
lhumerus -46.608 5.24279 87.3093
lradius 36.8439
lwrist -7.67465
lhand -9.60953 -20.5882
lfingers 7.12502
lthumb 16.3596 8.74186
rfemur 17.5562 4.73622 19.3583
rtibia -3.33958e-014
rfoot -21.5296 -12.9299
rtoes -3.95704
lfemur 4.8819 -7.74126 -11.0858
ltibia 22.0451
lfoot -23.1991 10.7222
ltoes -55.7648
801
root -0.907964 18.5016 6.17038 -6.58558 -1.3506 -3.45616
lowerback 5.02961 0.338521 1.63172
upperback -1.30805 0.602603 1.06549
thorax -4.16754 0.271872 0.133107
lowerneck -12.4069 -1.29218 -0.458802
upperneck 26.1454 -2.03327 1.06917
head 10.4186 -0.858252 0.203024
rclavicle -8.54774e-015 -3.57812e-015
rhumerus -52.0185 -6.4314 -83.708
rradius 41.3304
rwrist 19.9537
rhand -5.34353 -28.8101
rfingers 7.12502
rthumb 20.4633 302.248
lclavicle -8.54774e-015 -3.57812e-015
lhumerus -46.9932 5.00639 87.4089
lradius 37.3998
lwrist -7.59595
lhand -9.36768 -20.2866
lfingers 7.12502
lthumb 16.5925 9.02412
rfemur 17.5477 4.8947 19.3486
rtibia -3.33958e-014
rfoot -21.5 -12.9211
rtoes -3.87972
lfemur 4.93597 -7.6574 -11.1129
ltibia 22.0377
lfoot -23.2739 10.767
ltoes -55.6928
802
root -0.910621 18.5022 6.15631 -6.61653 -1.4594 -3.46614
lowerback 5.16818 0.352831 1.67873
upperback -1.28769 0.628375 1.0754
thorax -4.22424 0.283293 0.113893
lowerneck -12.3109 -1.2786 -0.333007
upperneck 25.9489 -2.00339 0.931795
head 10.3245 -0.849987 0.137582
rclavicle -9.56651e-016 6.95746e-016
rhumerus -52.1556 -6.3453 -83.7988
rradius 41.4909
rwrist 19.7132
rhand -4.24734 -29.0706
rfingers 7.12502
rthumb 21.5164 302.104
lclavicle -9.56651e-016 6.95746e-016
lhumerus -47.453 4.96889 87.3084
lradius 37.9871
lwrist -7.54104
lhand -9.22778 -20.8292
lfingers 7.12502
lthumb 16.7272 8.47012
rfemur 17.5183 4.99917 19.3888
rtibia -2.38542e-014
rfoot -21.4475 -12.9518
rtoes -4.06646
lfemur 4.96203 -7.58262 -11.0777
ltibia 22.0097
lfoot -23.2438 10.7532
ltoes -55.6171
803
root -0.91404 18.5046 6.13894 -6.59016 -1.50199 -3.50083
lowerback 5.25306 0.363566 1.75389
upperback -1.27038 0.649334 1.06674
thorax -4.25323 0.291514 0.0604226
lowerneck -12.2141 -1.29459 -0.280908
upperneck 25.7692 -2.03476 0.929165
head 10.2397 -0.861254 0.124966
rclavicle -1.05853e-014 -1.11319e-014
rhumerus -52.2153 -6.52289 -83.7782
rradius 41.5364
rwrist 19.5783
rhand -2.95353 -29.4604
rfingers 7.12502
rthumb 22.7586 301.862
lclavicle -1.05853e-014 -1.11319e-014
lhumerus -47.6182 4.8514 87.2421
lradius 37.981
lwrist -7.30429
lhand -9.26962 -21.5463
lfingers 7.12502
lthumb 16.6869 7.75644
rfemur 17.4244 5.03387 19.4441
rtibia -3.33958e-014
rfoot -21.3802 -13.0048
rtoes -4.30449
lfemur 4.90038 -7.54782 -11.0056
ltibia 21.9761
lfoot -23.1743 10.7181
ltoes -55.5625
804
root -0.918078 18.5071 6.12023 -6.54521 -1.52848 -3.49047
lowerback 5.34792 0.374209 1.75129
upperback -1.27102 0.665573 1.05905
thorax -4.30732 0.299149 0.0518047
lowerneck -12.1683 -1.30726 -0.2572
upperneck 25.6771 -2.06369 0.954776
head 10.1976 -0.870128 0.126947
rclavicle 1.19022e-014 0
rhumerus -52.2206 -6.73755 -83.7171
rradius 41.4955
rwrist 19.4311
rhand -3.58982 -29.2322
rfingers 7.12502
rthumb 22.1478 302.016
lclavicle 1.19022e-014 0
lhumerus -47.7833 4.93966 87.1127
lradius 38.0619
lwrist -7.37184
lhand -9.24725 -21.727
lfingers 7.12502
lthumb 16.7084 7.57395
rfemur 17.3068 5.06015 19.44
rtibia -9.38264e-014
rfoot -21.3748 -12.981
rtoes -4.06293
lfemur 4.80144 -7.54607 -10.9887
ltibia 21.9575
lfoot -23.1271 10.7461
ltoes -55.5217
805
root -0.920283 18.5093 6.10103 -6.50555 -1.56186 -3.48423
lowerback 5.47962 0.386453 1.77661
upperback -1.29533 0.68789 1.06344
thorax -4.40669 0.30881 0.0391023
lowerneck -12.1609 -1.29495 -0.228261
upperneck 25.6728 -2.04885 0.940086
head 10.194 -0.862185 0.118738
rclavicle -1.12686e-014 6.95746e-015
rhumerus -52.2367 -6.91081 -83.609
rradius 41.4606
rwrist 19.3029
rhand -4.32828 -28.9487
rfingers 7.12502
rthumb 21.4387 302.218
lclavicle -1.12686e-014 6.95746e-015
lhumerus -47.9894 5.06709 87.0021
lradius 38.2544
lwrist -7.46302
lhand -9.23143 -21.8272
lfingers 7.12502
lthumb 16.7237 7.47246
rfemur 17.1899 5.09453 19.4341
rtibia 1.74931e-014
rfoot -21.4207 -12.9183
rtoes -3.52612
lfemur 4.7038 -7.56547 -10.9838
ltibia 21.9473
lfoot -23.0975 10.847
ltoes -55.5663
806
root -0.920386 18.5116 6.0822 -6.48661 -1.6026 -3.52861
lowerback 5.61205 0.394843 1.88893
upperback -1.30438 0.711859 1.0829
thorax -4.48987 0.317298 -0.00700709
lowerneck -12.1702 -1.274 -0.221043
upperneck 25.687 -2.01352 0.912972
head 10.2003 -0.84809 0.112206
rclavicle -1.24986e-014 -8.24956e-015
rhumerus -52.2203 -7.10699 -83.4379
rradius 41.4163
rwrist 19.3178
rhand -4.33006 -29.0295
rfingers 7.12502
rthumb 21.437 302.137
lclavicle -1.24986e-014 -8.24956e-015
lhumerus -48.0183 5.06559 86.9974
lradius 38.174
lwrist -7.35905
lhand -9.40473 -22.0089
lfingers 7.12502
lthumb 16.5568 7.30481
rfemur 17.0954 5.13018 19.4836
rtibia 3.49861e-014
rfoot -21.4277 -12.9011
rtoes -3.13298
lfemur 4.6286 -7.54961 -10.9208
ltibia 21.935
lfoot -23.032 10.9291
ltoes -55.7084
807
root -0.920552 18.514 6.06421 -6.459 -1.64689 -3.55366
lowerback 5.71332 0.41396 1.974
upperback -1.30357 0.746282 1.07775
thorax -4.54489 0.331541 -0.0640932
lowerneck -12.2419 -1.27935 -0.204402
upperneck 25.7849 -2.03488 0.943003
head 10.2502 -0.851801 0.11661
rclavicle -2.95692e-015 2.98177e-016
rhumerus -52.1415 -7.3227 -83.2966
rradius 41.3198
rwrist 19.4614
rhand -4.44579 -29.2256
rfingers 7.12502
rthumb 21.3258 301.928
lclavicle -2.95692e-015 2.98177e-016
lhumerus -48.0672 5.06795 86.9625
lradius 38.3003
lwrist -7.3455
lhand -9.61398 -21.9994
lfingers 7.12502
lthumb 16.3553 7.33095
rfemur 16.9944 5.17186 19.5117
rtibia 2.06736e-014
rfoot -21.3944 -12.9112
rtoes -2.99001
lfemur 4.54089 -7.47083 -10.8615
ltibia 21.9301
lfoot -22.9432 10.8905
ltoes -55.7294
808
root -0.92076 18.5166 6.0466 -6.44536 -1.65682 -3.48463
lowerback 5.80183 0.439956 1.95454
upperback -1.28816 0.779888 1.0356
thorax -4.57809 0.347916 -0.100733
lowerneck -12.3445 -1.30101 -0.159736
upperneck 25.9314 -2.09049 0.985073
head 10.3242 -0.86659 0.115914
rclavicle -1.594e-014 -9.34288e-015
rhumerus -52.0116 -7.49847 -83.2125
rradius 41.2044
rwrist 19.6446
rhand -4.56559 -29.3671
rfingers 7.12502
rthumb 21.2108 301.773
lclavicle -1.594e-014 -9.34288e-015
lhumerus -47.6753 5.03953 86.9498
lradius 37.5415
lwrist -7.34035
lhand -9.98939 -22.3361
lfingers 7.12502
lthumb 15.9939 7.02363
rfemur 16.9193 5.19254 19.4315
rtibia 3.18055e-015
rfoot -21.3485 -12.9406
rtoes -3.16473
lfemur 4.46723 -7.40822 -10.914
ltibia 21.932
lfoot -22.9359 10.8204
ltoes -55.6327
